<svg width="20" height="18" viewBox="0 0 20 18" fill="none" xmlns="http://www.w3.org/2000/svg">
<path d="M4.91116 0C3.59909 0 2.35991 0.567227 1.44875 1.55042C-0.482916 3.63025 -0.482916 7.03361 1.44875 9.11345L2.39636 10.1723L10.0501 18L17.303 10.6261L18.3599 9.60504C19.4169 8.58403 20 7.14706 20 5.59664C20 4.27311 19.5626 3.02521 18.7608 2.04202C17.8861 0.983193 16.6834 0.340336 15.3713 0.264706C14.0592 0.189076 12.82 0.642857 11.836 1.58824L10.3052 3.06303C10.1595 3.21429 9.94078 3.21429 9.79499 3.06303L8.37358 1.55042C7.46241 0.529412 6.22323 0 4.91116 0Z" fill="#D4D8E3"/>
</svg>
