<svg width="77" height="56" viewBox="0 0 77 56" fill="none" xmlns="http://www.w3.org/2000/svg">
<path d="M76.9014 21.1934C76.7148 20.6674 76.2793 20.2652 75.7193 20.1414C75.5949 20.1105 69.4664 18.842 63.3068 15.8099C62.3735 14.8508 57.365 9.4674 57.6139 2.84641C57.645 2.07293 57.1161 1.42321 56.3695 1.26851C55.6229 1.11381 54.8763 1.54696 54.5963 2.25857C53.9119 4.08398 53.1031 5.97127 52.4809 7.08508C51.4232 5.38343 50.7077 3.49613 50.521 1.39227C50.4588 0.618786 49.8055 1.81422e-06 49.0278 -0.0309374C48.2189 -0.0618766 47.5657 0.525969 47.4412 1.29945C47.4412 1.36133 46.4146 8.41547 42.1527 15.4077C36.5531 24.5967 28.2781 29.3304 17.5144 29.516C16.55 29.516 15.6478 29.4851 14.7768 29.3613C14.0924 24.7823 12.7547 21.1006 11.3548 18.2851C7.68391 10.8906 2.7998 7.64199 2.58204 7.51823C2.14651 7.23978 1.55544 7.1779 1.08881 7.39448C0.591061 7.61105 0.279971 8.07514 0.186644 8.60111C0.124426 9.09613 -1.3377 20.7293 4.8841 27.6906C6.78175 29.7945 9.14604 31.2486 11.977 31.9912C12.5991 38.3337 11.8525 45.4188 9.67489 52.937C9.48824 53.5867 9.76822 54.2983 10.3282 54.6696C10.9192 55.0409 11.6659 54.979 12.1947 54.5149C12.2569 54.453 15.5234 51.6376 20.2519 48.5436C20.843 51.3591 20.9675 53.4011 20.9675 53.432C20.9986 54.1127 21.4963 54.7006 22.1807 54.8552C22.8651 55.0099 23.5495 54.7006 23.8917 54.0818C23.9539 53.958 30.6735 41.8608 41.095 40.4685L38.2952 52.9989C38.1396 53.7414 38.544 54.5149 39.2595 54.7934C39.4462 54.8552 39.6329 54.8862 39.8195 54.8862C40.3795 54.8862 40.9083 54.6077 41.1883 54.0818C41.2194 54.0199 44.517 48.2652 51.0499 43.6862C56.4006 47.2442 62.1247 52.7514 64.6445 55.474C64.9556 55.8144 65.36 55.9691 65.7955 55.9691C66.1066 55.9691 66.4488 55.8762 66.7288 55.6597C67.351 55.1956 67.5376 54.3293 67.1643 53.6486L58.1427 38.0243C58.1427 37.9934 58.1116 37.9934 58.1116 37.9934C58.0805 37.9315 58.0494 37.9006 58.0183 37.8696C57.9872 37.8387 57.9561 37.8077 57.9249 37.7459C57.8938 37.7149 57.8627 37.684 57.8005 37.653C57.7694 37.6221 57.7383 37.5912 57.6761 37.5602C57.645 37.5293 57.5827 37.4983 57.5516 37.4983C57.5205 37.4674 57.4583 37.4365 57.4272 37.4365C57.3961 37.4055 57.3339 37.4055 57.3028 37.3746C57.2406 37.3436 57.2094 37.3436 57.1472 37.3436C57.1161 37.3436 57.0539 37.3127 56.9917 37.3127C56.9295 37.3127 56.8983 37.3127 56.8361 37.2818C56.7739 37.2818 56.7428 37.2818 56.6806 37.2818C56.6184 37.2818 56.5873 37.2818 56.525 37.2818C56.4628 37.2818 56.4317 37.3127 56.4006 37.3127C56.3384 37.3127 56.3073 37.3436 56.2451 37.3746C56.214 37.3746 56.214 37.3746 56.1828 37.3746C54.3163 38.1481 52.5742 39.0453 51.0187 40.0354C48.25 38.4265 45.5125 37.3127 43.1793 37.2818C32.3845 36.6011 19.9409 44.7072 13.8746 49.2552C15.3056 42.8199 15.5856 37.2818 15.2123 32.5481C15.99 32.6099 16.7989 32.6409 17.6388 32.6409C32.5089 32.3934 40.6906 23.9779 44.9214 16.9547C46.9746 13.5514 48.3123 10.2099 49.1522 7.51823C53.8186 16.5215 66.5732 20.9149 72.3284 22.4928C68.6264 25.5249 64.209 26.7006 59.1382 26.0508C54.5341 25.432 51.081 23.4519 51.0499 23.421C50.3032 22.9878 49.37 23.2354 48.9344 23.9779C48.4989 24.7204 48.7478 25.6486 49.4944 26.0818C49.65 26.1746 53.4453 28.3713 58.6405 29.0829C65.64 30.042 71.8618 27.8453 76.6215 22.7094C76.9637 22.3072 77.0881 21.7193 76.9014 21.1934ZM7.21728 25.6486C3.70196 21.7193 3.11089 15.6552 3.11089 12.0354C4.69745 13.6133 6.84397 16.1503 8.64829 19.832C9.95487 22.5238 10.9192 25.463 11.5103 28.5878C9.83043 27.9381 8.39942 26.9481 7.21728 25.6486ZM23.5184 49.0387C23.394 48.358 23.2384 47.6155 23.0518 46.842C24.5139 45.9757 26.0382 45.1094 27.6559 44.3359C25.976 45.9448 24.5761 47.6155 23.5184 49.0387ZM56.1206 40.7779L59.076 45.9138C57.4583 44.5525 55.7162 43.1602 53.9119 41.8917C54.6274 41.5204 55.3429 41.1492 56.1206 40.7779ZM42.8993 46.7492L44.2992 40.4994C45.4813 40.716 46.7879 41.242 48.1567 41.9845C46.0413 43.5624 44.2992 45.2332 42.8993 46.7492ZM54.503 9.68398C54.7518 9.37459 55.0007 8.97238 55.2807 8.44641C55.6229 9.56022 56.0584 10.6122 56.5562 11.6022C55.8406 10.9834 55.1251 10.3646 54.503 9.68398Z" fill="#002653"/>
</svg>
